<svg width="370" height="42" viewBox="0 0 370 42" fill="none" xmlns="http://www.w3.org/2000/svg">
<rect width="365" height="40" transform="translate(0 0.838379)" fill="white"/>
<g clip-path="url(#clip0_791_673)">
<path d="M48.0098 16.8394H40.0098V24.8394H48.0098V16.8394Z" fill="#4200E8"/>
<path d="M56.0098 24.8394H48.0098V32.8394H56.0098V24.8394Z" fill="#00E6BC"/>
<path d="M64.0098 32.8394H56.0098V40.8394H64.0098V32.8394Z" fill="#FFBF2A"/>
<path d="M64.0098 0.839355H56.0098V8.83935H64.0098V0.839355Z" fill="#FFA6D7"/>
<path d="M56.0098 8.83936H48.0098V16.8394H56.0098V8.83936Z" fill="#B34AF5"/>
<path d="M40.0098 16.8394V8.83936H32.0098V0.839355H8.00977V8.83936H0.00976562V32.8394H8.00977V40.8394H32.0098V32.8394H40.0098V24.8394H24.0098V32.8394H16.0098V8.83936H24.0098V16.8394H40.0098Z" fill="#FF391A"/>
</g>
<path d="M140.163 11.4075C137.702 10.1052 134.799 9.45947 131.446 9.45947C128.092 9.45947 125.125 10.1052 122.631 11.4075C120.137 12.7098 118.213 14.5501 116.869 16.9502C115.515 19.3502 114.849 22.17 114.849 25.4203C114.849 28.6706 115.526 31.5441 116.902 33.9442C118.267 36.3335 120.191 38.1954 122.663 39.5084C125.136 40.8214 128.049 41.4887 131.403 41.4887C134.756 41.4887 137.659 40.843 140.142 39.5407C142.625 38.2384 144.527 36.3873 145.86 33.9765C147.193 31.5657 147.86 28.7351 147.86 25.4849C147.86 22.2346 147.193 19.361 145.86 16.9609C144.527 14.5717 142.636 12.7205 140.174 11.4182L140.163 11.4075ZM137.293 31.7594C135.928 33.32 133.961 34.0949 131.403 34.0949C128.844 34.0949 126.813 33.32 125.437 31.7594C124.05 30.1988 123.362 28.0894 123.362 25.4203C123.362 22.7512 124.05 20.6525 125.437 19.135C126.823 17.6175 128.812 16.8533 131.403 16.8533C133.993 16.8533 135.928 17.6175 137.293 19.135C138.658 20.6525 139.346 22.7512 139.346 25.4203C139.346 28.0894 138.658 30.1988 137.293 31.7594Z" fill="black"/>
<path d="M203.895 0.838867H195.596L195.564 9.91166H190.211V17.2517H195.543V40.8646H211.226V33.5246H203.895V17.2517H211.226V9.91166H203.895V0.838867Z" fill="black"/>
<path d="M290.534 0.838867H282.236L282.204 9.91166H276.851V17.2517H282.182V40.8646H297.865V33.5246H290.534V17.2517H297.865V9.91166H290.534V0.838867Z" fill="black"/>
<path d="M267.843 11.4075C265.381 10.1052 262.479 9.45947 259.125 9.45947C255.771 9.45947 252.805 10.1052 250.311 11.4075C247.817 12.7098 245.893 14.5501 244.549 16.9502C243.195 19.3502 242.528 22.17 242.528 25.4203C242.528 28.6706 243.206 31.5441 244.581 33.9442C245.947 36.3335 247.871 38.1954 250.343 39.5084C252.815 40.8214 255.728 41.4887 259.082 41.4887C262.436 41.4887 265.338 40.843 267.821 39.5407C270.304 38.2384 272.207 36.3873 273.54 33.9765C274.873 31.5657 275.539 28.7351 275.539 25.4849C275.539 22.2346 274.873 19.361 273.54 16.9609C272.207 14.5717 270.315 12.7205 267.854 11.4182L267.843 11.4075ZM264.973 31.7594C263.608 33.32 261.641 34.0949 259.082 34.0949C256.524 34.0949 254.492 33.32 253.116 31.7594C251.73 30.1988 251.042 28.0894 251.042 25.4203C251.042 22.7512 251.73 20.6525 253.116 19.135C254.503 17.6175 256.492 16.8533 259.082 16.8533C261.673 16.8533 263.608 17.6175 264.973 19.135C266.338 20.6525 267.026 22.7512 267.026 25.4203C267.026 28.0894 266.338 30.1988 264.973 31.7594Z" fill="black"/>
<path d="M325.759 11.2999C323.448 10.073 320.696 9.44873 317.482 9.44873C314.268 9.44873 311.355 10.0945 308.947 11.3752C306.539 12.656 304.68 14.4856 303.39 16.8641C302.1 19.2426 301.444 22.0732 301.444 25.3557C301.444 28.6383 302.111 31.4904 303.444 33.9012C304.777 36.312 306.668 38.1739 309.13 39.4977C311.592 40.8107 314.472 41.478 317.794 41.478C321.857 41.478 325.211 40.5416 327.834 38.6797C330.467 36.8178 332.123 34.2456 332.811 30.9522H324.297C323.857 32.2222 323.104 33.1585 322.04 33.772C320.976 34.3855 319.546 34.6976 317.74 34.6976C315.451 34.6976 313.602 34.0949 312.204 32.9002C310.807 31.7056 309.936 29.9621 309.592 27.6697H332.918V24.7961C332.918 21.6104 332.305 18.8767 331.069 16.5843C329.844 14.2919 328.07 12.5268 325.77 11.2999H325.759ZM309.786 22.0301C310.226 20.1144 311.108 18.6614 312.43 17.6713C313.742 16.6811 315.44 16.1861 317.525 16.1861C319.611 16.1861 321.266 16.6704 322.491 17.6498C323.717 18.6292 324.469 20.0821 324.749 22.0409H309.786V22.0301Z" fill="black"/>
<path d="M173.227 9.51367C170.529 9.51367 168.272 9.99798 166.466 10.9774C164.66 11.9568 163.155 13.3344 161.951 15.1102H158.748V10.0087H150.299V18.4681H155.394V40.8756H163.907V24.0431C163.907 21.7829 164.509 20.0717 165.724 18.8878C166.939 17.7039 168.702 17.1228 171.023 17.1228C173.345 17.1228 175.119 17.7147 176.334 18.8878C177.548 20.0717 178.15 21.7829 178.15 24.0431V40.8756H186.664V22.4502C186.664 18.5111 185.492 15.3792 183.149 13.033C180.805 10.6868 177.505 9.51367 173.227 9.51367Z" fill="black"/>
<path d="M231.467 11.2999C229.995 12.1824 228.866 13.4632 228.049 15.0883H224.362V9.98688H215.913V18.4462H221.008V40.8538H229.36V25.3019C229.36 22.8373 229.984 20.857 231.231 19.3503C232.478 17.8435 234.434 17.0901 237.1 17.0901H240.077V9.69629H237.465C235.24 9.69629 233.241 10.2237 231.467 11.2891V11.2999Z" fill="black"/>
<path d="M355.353 21.9872L368.338 10.2561H358.266L346.248 21.2123H346.044V0.838867H337.584V40.8431H346.044V29.8869L349.397 27.1317L359.427 40.8431H369.305L355.353 21.9872Z" fill="black"/>
<path d="M96.1014 34.0949C93.8441 34.0949 92.0167 33.3415 90.6193 31.8347C89.2219 30.328 88.5232 28.2078 88.5232 25.4741C88.5232 22.7404 89.2111 20.6202 90.5978 19.1134C91.9845 17.6067 93.8118 16.8533 96.1122 16.8533C97.7891 16.8533 99.165 17.2085 100.261 17.9296C101.358 18.6507 102.121 19.6731 102.572 21.0076H111.129C110.441 17.413 108.786 14.5932 106.163 12.5376C103.529 10.4819 100.186 9.45947 96.1122 9.45947C92.8981 9.45947 90.0818 10.116 87.6525 11.4398C85.2232 12.7528 83.342 14.6147 82.0091 17.004C80.6762 19.3933 80.0098 22.2238 80.0098 25.4741C80.0098 28.7244 80.687 31.5441 82.0306 33.9442C83.3743 36.3335 85.2554 38.1954 87.6632 39.5084C90.0711 40.8214 92.8874 41.4887 96.0907 41.4887C100.326 41.4887 103.766 40.434 106.388 38.303C109.022 36.1828 110.645 33.2446 111.258 29.4777H102.701C101.917 32.5558 99.7132 34.0949 96.0907 34.0949H96.1014Z" fill="black"/>
<defs>
<clipPath id="clip0_791_673">
<rect width="64" height="40" fill="white" transform="translate(0.00976562 0.838867)"/>
</clipPath>
</defs>
</svg>
