<svg xmlns="http://www.w3.org/2000/svg" width="178" height="26" viewBox="0 0 178 26" fill="none">
  <path d="M37.6546 7.23647C36.1503 6.44065 34.3766 6.04602 32.3271 6.04602C30.2776 6.04602 28.4645 6.44065 26.9405 7.23647C25.4165 8.0323 24.2407 9.15698 23.4195 10.6237C22.5918 12.0904 22.1846 13.8136 22.1846 15.7998C22.1846 17.7861 22.5984 19.5422 23.4392 21.0089C24.2735 22.469 25.4494 23.6068 26.9602 24.4093C28.4711 25.2117 30.2513 25.6194 32.3008 25.6194C34.3504 25.6194 36.124 25.2248 37.6414 24.429C39.1589 23.6332 40.3216 22.5019 41.1361 21.0286C41.9507 19.5554 42.358 17.8256 42.358 15.8393C42.358 13.853 41.9507 12.0969 41.1361 10.6303C40.3216 9.17014 39.1654 8.03888 37.6611 7.24305L37.6546 7.23647ZM35.9006 19.6738C35.0664 20.6274 33.8643 21.101 32.3008 21.101C30.7374 21.101 29.4959 20.6274 28.655 19.6738C27.8076 18.7201 27.3872 17.431 27.3872 15.7998C27.3872 14.1687 27.8076 12.8862 28.655 11.9588C29.5024 11.0315 30.7177 10.5645 32.3008 10.5645C33.884 10.5645 35.0664 11.0315 35.9006 11.9588C36.7349 12.8862 37.1553 14.1687 37.1553 15.7998C37.1553 17.431 36.7349 18.7201 35.9006 19.6738Z" fill="black"/>
  <path d="M76.6016 0.777771H71.5303L71.5106 6.32226H68.2393V10.8078H71.4975V25.238H81.0817V20.7524H76.6016V10.8078H81.0817V6.32226H76.6016V0.777771Z" fill="black"/>
  <path d="M129.548 0.777771H124.477L124.457 6.32226H121.186V10.8078H124.444V25.238H134.028V20.7524H129.548V10.8078H134.028V6.32226H129.548V0.777771Z" fill="black"/>
  <path d="M115.681 7.23647C114.177 6.44065 112.403 6.04602 110.353 6.04602C108.304 6.04602 106.491 6.44065 104.967 7.23647C103.443 8.0323 102.267 9.15698 101.446 10.6237C100.618 12.0904 100.211 13.8136 100.211 15.7998C100.211 17.7861 100.625 19.5422 101.466 21.0089C102.3 22.469 103.476 23.6068 104.987 24.4093C106.497 25.2117 108.278 25.6194 110.327 25.6194C112.377 25.6194 114.15 25.2248 115.668 24.429C117.185 23.6332 118.348 22.5019 119.163 21.0286C119.977 19.5554 120.384 17.8256 120.384 15.8393C120.384 13.853 119.977 12.0969 119.163 10.6303C118.348 9.17014 117.192 8.03888 115.687 7.24305L115.681 7.23647ZM113.927 19.6738C113.093 20.6274 111.891 21.101 110.327 21.101C108.764 21.101 107.522 20.6274 106.681 19.6738C105.834 18.7201 105.414 17.431 105.414 15.7998C105.414 14.1687 105.834 12.8862 106.681 11.9588C107.529 11.0315 108.744 10.5645 110.327 10.5645C111.91 10.5645 113.093 11.0315 113.927 11.9588C114.761 12.8862 115.182 14.1687 115.182 15.7998C115.182 17.431 114.761 18.7201 113.927 19.6738Z" fill="black"/>
  <path d="M151.075 7.17069C149.663 6.4209 147.981 6.03943 146.017 6.03943C144.053 6.03943 142.272 6.43405 140.801 7.21673C139.33 7.9994 138.193 9.11751 137.405 10.571C136.617 12.0246 136.216 13.7544 136.216 15.7604C136.216 17.7664 136.623 19.5093 137.438 20.9826C138.252 22.4558 139.408 23.5937 140.913 24.4027C142.417 25.2051 144.177 25.6129 146.207 25.6129C148.69 25.6129 150.74 25.0406 152.343 23.9028C153.952 22.765 154.964 21.193 155.384 19.1805H150.182C149.912 19.9566 149.452 20.5288 148.802 20.9037C148.152 21.2785 147.278 21.4693 146.174 21.4693C144.775 21.4693 143.645 21.101 142.791 20.3709C141.937 19.6409 141.405 18.5754 141.195 17.1744H155.45V15.4184C155.45 13.4715 155.075 11.801 154.32 10.4C153.571 8.99912 152.487 7.92048 151.081 7.17069H151.075ZM141.313 13.728C141.583 12.5573 142.121 11.6694 142.929 11.0643C143.731 10.4592 144.769 10.1567 146.043 10.1567C147.317 10.1567 148.329 10.4527 149.078 11.0512C149.827 11.6497 150.287 12.5376 150.457 13.7346H141.313V13.728Z" fill="black"/>
  <path d="M57.8603 6.07889C56.2115 6.07889 54.832 6.37486 53.7284 6.97337C52.6248 7.57189 51.7052 8.41375 50.9694 9.49897H49.0119V6.38143H43.8486V11.551H46.9623V25.2445H52.165V14.958C52.165 13.5768 52.5328 12.531 53.2751 11.8075C54.0174 11.0841 55.0948 10.7289 56.5137 10.7289C57.9326 10.7289 59.0165 11.0906 59.7587 11.8075C60.501 12.531 60.8689 13.5768 60.8689 14.958V25.2445H66.0716V13.9845C66.0716 11.5773 65.3555 9.6634 63.9235 8.2296C62.4915 6.79579 60.4748 6.07889 57.8603 6.07889Z" fill="black"/>
  <path d="M93.4516 7.17069C92.5517 7.71001 91.8619 8.49269 91.3627 9.48583H89.1095V6.36829H83.9463V11.5379H87.06V25.2314H92.1641V15.7275C92.1641 14.2213 92.5451 13.0111 93.3071 12.0904C94.0691 11.1696 95.2647 10.7092 96.8938 10.7092H98.7134V6.1907H97.1171C95.7574 6.1907 94.5355 6.51298 93.4516 7.16411V7.17069Z" fill="black"/>
  <path d="M169.159 13.7018L177.095 6.53272H170.94L163.595 13.2282H163.471V0.777771H158.301V25.2248H163.471V18.5293L165.52 16.8456L171.649 25.2248H177.686L169.159 13.7018Z" fill="black"/>
  <path d="M10.7283 21.101C9.34883 21.101 8.23211 20.6406 7.37814 19.7198C6.52417 18.799 6.09718 17.5033 6.09718 15.8327C6.09718 14.1621 6.5176 12.8665 7.365 11.9457C8.2124 11.0249 9.32913 10.5645 10.7349 10.5645C11.7597 10.5645 12.6005 10.7815 13.2705 11.2222C13.9406 11.6629 14.407 12.2877 14.6829 13.1032H19.9118C19.4914 10.9065 18.4797 9.18329 16.8769 7.92707C15.2675 6.67084 13.2245 6.04602 10.7349 6.04602C8.77076 6.04602 7.04968 6.44722 5.56509 7.25621C4.0805 8.05861 2.93092 9.19645 2.11637 10.6566C1.30181 12.1167 0.894531 13.8464 0.894531 15.8327C0.894531 17.819 1.30838 19.5422 2.12951 21.0089C2.95063 22.469 4.1002 23.6068 5.57166 24.4093C7.04312 25.2117 8.76419 25.6194 10.7218 25.6194C13.3099 25.6194 15.412 24.9749 17.0149 23.6726C18.6243 22.3769 19.6162 20.5814 19.9906 18.2794H14.7617C14.2822 20.1605 12.9355 21.101 10.7218 21.101H10.7283Z" fill="black"/>
</svg>
